HIERARCHY
ROOT Hips
{
	OFFSET 0.00000 0.00000 0.00000
	CHANNELS 6 Xposition Yposition Zposition Zrotation Yrotation Xrotation 
	JOINT LHipJoint
	{
		OFFSET 0 0 0
		CHANNELS 3 Zrotation Yrotation Xrotation
		JOINT LeftHip
		{
			OFFSET 1.58161 -1.81893 0.78828
			CHANNELS 3 Zrotation Yrotation Xrotation
			JOINT LeftKnee
			{
				OFFSET 2.53374 -6.96141 0.00000
				CHANNELS 3 Zrotation Yrotation Xrotation
				JOINT LeftAnkle
				{
					OFFSET 2.63509 -7.23986 0.00000
					CHANNELS 3 Zrotation Yrotation Xrotation
					JOINT LeftToe
					{
						OFFSET 0.14115 -0.38781 2.05350
						CHANNELS 3 Zrotation Yrotation Xrotation
						End Site
						{
							OFFSET 0.00000 -0.00000 1.05543
						}
					}
				}
			}
		}
	}
	JOINT RHipJoint
	{
		OFFSET 0 0 0
		CHANNELS 3 Zrotation Yrotation Xrotation
		JOINT RightHip
		{
			OFFSET -1.11138 -1.81893 0.78828
			CHANNELS 3 Zrotation Yrotation Xrotation
			JOINT RightKnee
			{
				OFFSET -2.58392 -7.09926 0.00000
				CHANNELS 3 Zrotation Yrotation Xrotation
				JOINT RightAnkle
				{
					OFFSET -2.66423 -7.31992 0.00000
					CHANNELS 3 Zrotation Yrotation Xrotation
					JOINT RightToe
					{
						OFFSET -0.18831 -0.51739 2.12114
						CHANNELS 3 Zrotation Yrotation Xrotation
						End Site
						{
							OFFSET -0.00000 -0.00000 1.09845
						}
					}
				}
			}
		}
	}
	JOINT lowerback
	{
		OFFSET 0 0 0
		CHANNELS 3 Zrotation Yrotation Xrotation
		JOINT Chest
		{
			OFFSET -0.01511 1.97958 -0.08829
			CHANNELS 3 Zrotation Yrotation Xrotation
			JOINT Chest2
			{
				OFFSET 0.08344 1.97334 -0.04330
				CHANNELS 3 Zrotation Yrotation Xrotation
				JOINT lowerneck
				{
					OFFSET 0 0 0
					CHANNELS 3 Zrotation Yrotation Xrotation
					JOINT Neck
					{
						OFFSET 0.00559 1.76246 0.31246
						CHANNELS 3 Zrotation Yrotation Xrotation
						JOINT Head
						{
							OFFSET -0.07011 1.80354 -0.30524
							CHANNELS 3 Zrotation Yrotation Xrotation
							End Site
							{
								OFFSET -0.02385 1.83547 -0.13906
							}
						}
					}
				}
				JOINT LeftCollar
				{
					OFFSET 0 0 0
					CHANNELS 3 Zrotation Yrotation Xrotation
					JOINT LeftShoulder
					{
						OFFSET 3.20667 1.30156 -0.60240
CHANNELS 3 Zrotation Xrotation Yrotation
						JOINT LeftElbow
						{
OFFSET 0 -4.956630 0.000000
CHANNELS 3 Zrotation Xrotation Yrotation
							JOINT LeftWrist
							{
OFFSET 0 -3.381770 0.000000
CHANNELS 3 Zrotation Xrotation Yrotation
								JOINT lhand
								{
									OFFSET 0 0 0
CHANNELS 3 Zrotation Xrotation Yrotation
									JOINT LFingers
									{
OFFSET 0 -0.662910 0.000000
CHANNELS 3 Zrotation Xrotation Yrotation
										End Site
										{
OFFSET 0 -0.534450 0.000000
										}
									}
								}
								JOINT LThumb
								{
OFFSET 0 0.000000 0.000000
CHANNELS 3 Zrotation Xrotation Yrotation
									End Site
									{
OFFSET 0 -0.542610 0.542610
									}
								}
							}
						}
					}
				}
				JOINT RightCollar
				{
					OFFSET 0 0 0
					CHANNELS 3 Zrotation Yrotation Xrotation
					JOINT RightShoulder
					{
						OFFSET -3.06877 1.34672 -0.60964
CHANNELS 3 Zrotation Xrotation Yrotation
						JOINT RightElbow
						{
OFFSET 0 -5.083650 0.000000
CHANNELS 3 Zrotation Xrotation Yrotation
							JOINT RightWrist
							{
OFFSET 0 -3.359840 0.000000
CHANNELS 3 Zrotation Xrotation Yrotation
								JOINT rhand
								{
									OFFSET 0 0 0
CHANNELS 3 Zrotation Xrotation Yrotation
									JOINT RFingers
									{
OFFSET 0 -0.820760 0.000000
CHANNELS 3 Zrotation Xrotation Yrotation
										End Site
										{
OFFSET 0 -0.661720 0.000000
										}
									}
								}
								JOINT RThumb
								{
OFFSET 0 0.000000 0.000000
CHANNELS 3 Zrotation Xrotation Yrotation
									End Site
									{
OFFSET 0 -0.671820 0.671820
									}
								}
							}
						}
					}
				}
			}
		}
	}
}
MOTION
Frames: 10
Frame Time: 0.008333333333333333
-11.921900 18.092200 6.496200 -105.018000 85.024700 -89.271400 0.000000 0.000000 0.000000 -5.111500 -7.552800 -26.084000 1.169100 6.863500 19.311500 0.106700 -3.468900 -5.929000 0.482900 -4.455900 -12.363000 0.000000 0.000000 0.000000 13.862500 9.237800 -25.007000 -0.995200 -6.348700 17.799700 0.112300 -6.756700 -5.916000 -0.019200 -0.894000 2.457100 -1.280700 1.607000 3.614200 4.732600 2.212300 3.577100 5.566300 1.086200 1.425800 1.438600 -2.180300 -12.008800 -2.869800 0.059600 42.364600 -1.345800 0.603800 17.661700 0.000000 0.000000 0.000000 -8.440600 -19.971700 -84.370700 21.706400 -32.643600 6.426700 16.719200 -39.827700 -62.522800 0.000000 0.000000 0.000000 -7.125000 0.000000 0.000000 167.161900 4.062400 -12.212800 0.000000 0.000000 0.000000 9.116500 -18.683400 46.058800 -17.221500 -27.148900 -4.187900 -29.984300 -40.789000 13.597000 0.000000 0.000000 0.000000 7.125000 0.000000 -0.000000 -2.435900 45.567700 0.034200
-11.925754 18.093386 6.495706 -104.060324 85.044269 -88.270040 0.000000 0.000000 0.000000 -5.116343 -7.526214 -26.155752 1.174042 6.877435 19.352713 0.105316 -3.349116 -5.873852 0.417968 -4.149424 -11.497336 0.000000 0.000000 0.000000 13.840658 9.301843 -25.038033 -0.990357 -6.333678 17.755819 0.112498 -6.735945 -5.851068 -0.012875 -0.731620 2.010481 -1.313018 1.607791 3.586626 4.705817 2.211213 3.570379 5.557306 1.084520 1.434102 1.486632 -2.180695 -12.008800 -2.883043 0.052978 42.397313 -1.362503 0.607457 17.680181 0.000000 0.000000 0.000000 -8.494167 -20.015186 -84.293513 21.641270 -32.569180 6.391615 16.036374 -40.429978 -62.205749 0.000000 0.000000 0.000000 -7.125000 0.000000 0.000000 167.016816 3.695143 -12.449007 0.000000 0.000000 0.000000 9.043167 -18.668180 46.086769 -17.295327 -27.245458 -4.221602 -30.165754 -40.713690 13.730027 0.000000 0.000000 0.000000 7.125000 0.000000 0.000000 -2.596896 45.743818 0.047740
-11.929511 18.094865 6.494919 -103.745269 85.105637 -87.910911 0.000000 0.000000 0.000000 -5.179099 -7.536838 -26.186973 1.170779 6.868224 19.325464 0.103542 -3.203354 -5.804445 0.347176 -3.785620 -10.474239 0.000000 0.000000 0.000000 13.749671 9.360123 -25.064964 -0.986784 -6.322659 17.723560 0.114258 -6.783555 -5.885263 -0.017585 -0.856955 2.355321 -1.341918 1.612488 3.565107 4.648172 2.214814 3.549595 5.513154 1.085672 1.425313 1.537008 -2.183825 -11.987119 -2.880661 0.037567 42.423971 -1.373443 0.611016 17.689092 0.000000 0.000000 0.000000 -8.521560 -20.037674 -84.336060 21.588348 -32.508628 6.363171 15.151191 -41.179923 -62.027086 0.000000 0.000000 0.000000 -7.125000 0.000000 0.000000 166.782370 3.448596 -12.748207 0.000000 0.000000 0.000000 8.948348 -18.626005 46.158687 -17.400504 -27.382644 -4.269855 -30.495559 -40.872479 13.724959 0.000000 0.000000 0.000000 7.125000 0.000000 0.000000 -2.910247 45.784574 0.056397
-11.933749 18.096444 6.494225 -103.865372 85.077283 -87.998226 0.000000 0.000000 0.000000 -5.112089 -7.604067 -26.201499 1.168577 6.862114 19.307431 0.105430 -3.216690 -5.855775 0.353606 -3.820326 -10.571776 0.000000 0.000000 0.000000 13.739394 9.459442 -25.068591 -0.985349 -6.318251 17.710545 0.119028 -6.896054 -5.933768 -0.026288 -1.046330 2.876180 -1.282388 1.602468 3.564214 4.621133 2.202259 3.534336 5.450633 1.080875 1.414293 1.581140 -2.175891 -11.987758 -2.865933 0.032182 42.441390 -1.375919 0.618241 17.698949 0.000000 0.000000 0.000000 -8.517086 -20.055472 -84.443147 21.605530 -32.528332 6.372439 15.124989 -41.219894 -62.176229 0.000000 0.000000 0.000000 -7.125000 0.000000 0.000000 166.749396 3.590629 -12.746230 0.000000 0.000000 0.000000 8.943012 -18.674309 46.082143 -17.420658 -27.408962 -4.279202 -30.681142 -40.801131 13.756836 0.000000 0.000000 0.000000 7.125000 0.000000 0.000000 -3.084152 45.847160 0.064513
-11.938285 18.095833 6.492484 -103.761329 85.102033 -87.892552 0.000000 0.000000 0.000000 -5.119800 -7.625279 -26.191324 1.164496 6.850461 19.273150 0.104070 -3.305857 -5.835584 0.386215 -3.990722 -11.050445 0.000000 0.000000 0.000000 13.717270 9.439169 -25.096249 -0.985491 -6.318863 17.712388 0.118437 -6.856346 -5.859240 -0.020118 -0.914401 2.513212 -1.314517 1.573407 3.604046 4.601802 2.162717 3.529510 5.448495 1.060777 1.390736 1.633032 -2.152817 -12.027741 -2.889327 0.066127 42.496145 -1.391633 0.637946 17.743054 0.000000 0.000000 0.000000 -8.518235 -20.065156 -84.423741 21.637085 -32.564466 6.389387 15.338139 -40.968564 -62.477690 0.000000 0.000000 0.000000 -7.125000 0.000000 0.000000 166.761460 3.899421 -12.656294 0.000000 0.000000 0.000000 8.947762 -18.700408 46.024964 -17.467533 -27.469950 -4.300758 -30.878823 -40.599170 13.860380 0.000000 0.000000 0.000000 7.125000 0.000000 0.000000 -3.264836 45.993532 0.080147
-11.942360 18.094764 6.491647 -103.010277 85.234272 -87.188179 0.000000 0.000000 0.000000 -5.266808 -7.588443 -26.137884 1.162323 6.844345 19.255023 0.101834 -3.337035 -5.783655 0.393355 -4.027059 -11.152792 0.000000 0.000000 0.000000 13.583533 9.449016 -25.071048 -0.986724 -6.322478 17.723046 0.115105 -6.780004 -5.833844 -0.017540 -0.853836 2.346674 -1.500183 1.559101 3.682173 4.551373 2.138014 3.545495 5.500004 1.044735 1.361824 1.752914 -2.123830 -12.058889 -2.972040 0.107534 42.522057 -1.445787 0.662157 17.767421 0.000000 0.000000 0.000000 -8.510108 -20.105240 -84.397366 21.654607 -32.584466 6.398768 15.476277 -40.853569 -62.513574 0.000000 0.000000 0.000000 -7.125000 0.000000 0.000000 166.796656 3.945183 -12.609247 0.000000 0.000000 0.000000 8.932276 -18.685028 46.033411 -17.543431 -27.568563 -4.335885 -31.188561 -40.513510 13.849958 0.000000 0.000000 0.000000 7.125000 0.000000 0.000000 -3.561049 46.026305 0.090316
-11.945576 18.095444 6.493181 -101.418534 85.269832 -85.613840 0.000000 0.000000 0.000000 -5.298961 -7.505200 -26.115723 1.162665 6.845302 19.257906 0.103374 -3.316941 -5.818346 0.414250 -4.131273 -11.446336 0.000000 0.000000 0.000000 13.527411 9.609547 -25.052662 -0.990148 -6.333115 17.754200 0.114993 -6.795485 -5.878157 -0.024002 -0.999932 2.748508 -1.584317 1.566669 3.695734 4.507943 2.144783 3.572072 5.502270 1.045660 1.379814 1.837194 -2.091228 -12.072138 -3.002672 0.136781 42.504716 -1.470766 0.680710 17.761268 0.000000 0.000000 0.000000 -8.482447 -20.175860 -84.431601 21.639885 -32.567560 6.390931 15.777950 -40.819489 -62.132160 0.000000 0.000000 0.000000 -7.125000 0.000000 0.000000 166.952789 3.601741 -12.536766 0.000000 0.000000 0.000000 8.982816 -18.722497 45.927907 -17.533029 -27.555065 -4.331026 -31.471194 -40.444359 13.696313 0.000000 0.000000 0.000000 7.125000 0.000000 0.000000 -3.840383 45.890835 0.084484
-11.948646 18.093205 6.494585 -99.485347 85.235815 -83.656956 0.000000 0.000000 0.000000 -5.278663 -7.354300 -26.158098 1.164169 6.849440 19.270045 0.106897 -3.264340 -5.899981 0.501009 -4.536212 -12.590596 0.000000 0.000000 0.000000 13.569067 9.709380 -25.120540 -0.993797 -6.344551 17.787443 0.114449 -6.760823 -5.813562 -0.022847 -0.976768 2.684834 -1.512947 1.589245 3.669772 4.430526 2.174415 3.583090 5.380355 1.061226 1.407469 1.884135 -2.063099 -12.090721 -2.926094 0.132189 42.525520 -1.445589 0.695497 17.778146 0.000000 0.000000 0.000000 -8.352862 -20.230583 -84.533282 21.606839 -32.529839 6.373130 14.899165 -41.721181 -62.135804 0.000000 0.000000 0.000000 -7.125000 0.000000 0.000000 166.688574 3.534106 -12.822477 0.000000 0.000000 0.000000 9.118553 -18.749457 45.790985 -17.536491 -27.559660 -4.332612 -31.778404 -40.426462 13.606294 0.000000 0.000000 0.000000 7.125000 0.000000 0.000000 -4.138497 45.831468 0.085010
-11.951348 18.089465 6.494247 -98.554507 85.234504 -82.725720 0.000000 0.000000 0.000000 -5.304983 -7.250024 -26.184663 1.165116 6.852066 19.277808 0.108741 -3.255177 -5.943714 0.562537 -4.803485 -13.348908 0.000000 0.000000 0.000000 13.592137 9.676679 -25.184263 -0.997182 -6.354928 17.817758 0.111862 -6.677011 -5.731534 -0.017805 -0.860205 2.364288 -1.453976 1.590203 3.684080 4.356909 2.175640 3.582812 5.268787 1.063053 1.403454 1.933397 -2.049831 -12.096561 -2.877219 0.120178 42.561313 -1.434679 0.705493 17.800187 0.000000 0.000000 0.000000 -8.263177 -20.261379 -84.604287 21.573360 -32.491427 6.355102 14.330653 -42.185154 -62.165805 0.000000 0.000000 0.000000 -7.125000 0.000000 0.000000 166.513247 3.519975 -13.004954 0.000000 0.000000 0.000000 9.221314 -18.731657 45.659297 -17.587937 -27.626285 -4.356460 -31.874073 -40.238831 13.766642 0.000000 0.000000 0.000000 7.125000 0.000000 0.000000 -4.220954 46.030158 0.107491
-11.953748 18.089279 6.492231 -98.974691 85.238279 -83.101976 0.000000 0.000000 0.000000 -5.301815 -7.287220 -26.239437 1.164216 6.849526 19.270447 0.107379 -3.284498 -5.915644 0.530159 -4.665616 -12.957308 0.000000 0.000000 0.000000 13.588373 9.584181 -25.287646 -1.001616 -6.368607 17.857735 0.107036 -6.584765 -5.745713 -0.025264 -1.025049 2.817721 -1.420681 1.547506 3.616183 4.333804 2.118052 3.595317 5.229855 1.033571 1.462037 1.955460 -2.034830 -12.091721 -2.893660 0.134749 42.524533 -1.443822 0.709800 17.777424 0.000000 0.000000 0.000000 -8.304584 -20.328259 -84.591461 21.512484 -32.421672 6.322439 14.031718 -42.404918 -62.031065 0.000000 0.000000 0.000000 -7.125000 0.000000 0.000000 166.444458 3.367764 -13.114251 0.000000 0.000000 0.000000 9.270072 -18.776310 45.503639 -17.597406 -27.638648 -4.360869 -31.816783 -39.896389 13.949353 0.000000 0.000000 0.000000 7.125000 0.000000 0.000000 -4.155582 46.232123 0.126533
